<svg width="1440" height="928" viewBox="0 0 1440 928" fill="none" xmlns="http://www.w3.org/2000/svg"><path d="M12-275.739V928.5M24-275.739V928.5M36-275.739V928.5M48-275.739V928.5M60-275.739V928.5M72-275.739V928.5M84-275.739V928.5M96-275.739V928.5m12-1204.239V928.5m12-1204.239V928.5m12-1204.239V928.5m12-1204.239V928.5m12-1204.239V928.5m12-1204.239V928.5m12-1204.239V928.5m12-1204.239V928.5m12-1204.239V928.5m12-1204.239V928.5m12-1204.239V928.5m12-1204.239V928.5m12-1204.239V928.5m12-1204.239V928.5m12-1204.239V928.5m12-1204.239V928.5m12-1204.239V928.5m12-1204.239V928.5m12-1204.239V928.5m12-1204.239V928.5m12-1204.239V928.5m12-1204.239V928.5m12-1204.239V928.5m12-1204.239V928.5m12-1204.239V928.5m12-1204.239V928.5m12-1204.239V928.5m12-1204.239V928.5m12-1204.239V928.5m12-1204.239V928.5m12-1204.239V928.5m12-1204.239V928.5m12-1204.239V928.5m12-1204.239V928.5m12-1204.239V928.5m12-1204.239V928.5m12-1204.239V928.5m12-1204.239V928.5m12-1204.239V928.5m12-1204.239V928.5m12-1204.239V928.5m12-1204.239V928.5m12-1204.239V928.5m12-1204.239V928.5m12-1204.239V928.5m12-1204.239V928.5m12-1204.239V928.5m12-1204.239V928.5m12-1204.239V928.5m12-1204.239V928.5m12-1204.239V928.5m12-1204.239V928.5m12-1204.239V928.5m12-1204.239V928.5m12-1204.239V928.5m12-1204.239V928.5m12-1204.239V928.5m12-1204.239V928.5m12-1204.239V928.5m12-1204.239V928.5m12-1204.239V928.5m12-1204.239V928.5m12-1204.239V928.5m12-1204.239V928.5m12-1204.239V928.5m12-1204.239V928.5m12-1204.239V928.5m12-1204.239V928.5m12-1204.239V928.5m12-1204.239V928.5m12-1204.239V928.5m12-1204.239V928.5m12-1204.239V928.5m12-1204.239V928.5m12-1204.239V928.5m12-1204.239V928.5m12-1204.239V928.5m12-1204.239V928.5m12-1204.239V928.5m12-1204.239V928.5m12-1204.239V928.5m12-1204.239V928.5m12-1204.239V928.5m12-1204.239V928.5m12-1204.239V928.5m12-1204.239V928.5m12-1204.239V928.5m12-1204.239V928.5m12-1204.239V928.5m12-1204.239V928.5m12-1204.239V928.5m12-1204.239V928.5m12-1204.239V928.5m12-1204.239V928.5m12-1204.239V928.5m12-1204.239V928.5m12-1204.239V928.5m12-1204.239V928.5m12-1204.239V928.5m12-1204.239V928.5m12-1204.239V928.5m12-1204.239V928.5m12-1204.239V928.5m12-1204.239V928.5m12-1204.239V928.5m12-1204.239V928.5m12-1204.239V928.5m12-1204.239V928.5m12-1204.239V928.5m12-1204.239V928.5m12-1204.239V928.5" stroke="#F9F9FA" stroke-width="3" stroke-linecap="round" stroke-dasharray="0.1 12"/><mask id="a" style="mask-type:alpha" maskUnits="userSpaceOnUse" x="26" y="70" width="1357" height="817"><path d="M70 72a2 2 0 0 1 2-2h181a2 2 0 0 1 2 2v174.977c0 1.653-1.89 2.592-3.207 1.595l-48.856-36.987a2 2 0 0 0-1.207-.405H72a2 2 0 0 1-2-2zm106.5 677.933a8 8 0 0 0-8-8h-134a8 8 0 0 0-8 8v134.973c0 1.653 1.891 2.593 3.209 1.594l38.902-29.501a2 2 0 0 1 1.209-.406h98.68a8 8 0 0 0 8-8zm1021-203.005c0-1.105.9-2 2-2h181c1.1 0 2 .895 2 2v174.977c0 1.653-1.89 2.592-3.21 1.595l-48.85-36.987a2 2 0 0 0-1.21-.405H1199.5c-1.1 0-2-.895-2-2zm-37.5-364c0-1.105-.9-2-2-2H977a2 2 0 0 0-2 2v174.977c0 1.653 1.89 2.592 3.207 1.595l48.853-36.987c.35-.263.77-.405 1.21-.405H1158c1.1 0 2-.895 2-2zm-821 314a2 2 0 0 1 2-2h181a2 2 0 0 1 2 2v174.977c0 1.653-1.89 2.592-3.207 1.595l-48.856-36.987a2 2 0 0 0-1.207-.405H341a2 2 0 0 1-2-2z" fill="#D9D9D9"/></mask><g mask="url(#a)" stroke="#E4E3E8" stroke-width="3" stroke-linecap="round" stroke-dasharray="0.1 12"><path d="M36-275.739V928.5M48-275.739V928.5M60-275.739V928.5M72-275.739V928.5M84-275.739V928.5M96-275.739V928.5m12-1204.239V928.5m12-1204.239V928.5m12-1204.239V928.5m12-1204.239V928.5m12-1204.239V928.5m12-1204.239V928.5m12-1204.239V928.5m12-1204.239V928.5m12-1204.239V928.5m12-1204.239V928.5m12-1204.239V928.5m12-1204.239V928.5m12-1204.239V928.5m12-1204.239V928.5m12-1204.239V928.5m12-1204.239V928.5m12-1204.239V928.5m12-1204.239V928.5m12-1204.239V928.5m12-1204.239V928.5m12-1204.239V928.5m12-1204.239V928.5m12-1204.239V928.5m12-1204.239V928.5m12-1204.239V928.5m12-1204.239V928.5m12-1204.239V928.5m12-1204.239V928.5m12-1204.239V928.5m12-1204.239V928.5m12-1204.239V928.5m12-1204.239V928.5m12-1204.239V928.5m12-1204.239V928.5m12-1204.239V928.5m12-1204.239V928.5m12-1204.239V928.5m12-1204.239V928.5m12-1204.239V928.5m12-1204.239V928.5m12-1204.239V928.5m12-1204.239V928.5m12-1204.239V928.5m12-1204.239V928.5m12-1204.239V928.5m12-1204.239V928.5m12-1204.239V928.5m12-1204.239V928.5m12-1204.239V928.5m12-1204.239V928.5m12-1204.239V928.5m12-1204.239V928.5m12-1204.239V928.5m12-1204.239V928.5m12-1204.239V928.5m12-1204.239V928.5m12-1204.239V928.5m12-1204.239V928.5m12-1204.239V928.5m12-1204.239V928.5m12-1204.239V928.5m12-1204.239V928.5m12-1204.239V928.5m12-1204.239V928.5m12-1204.239V928.5m12-1204.239V928.5m12-1204.239V928.5m12-1204.239V928.5m12-1204.239V928.5m12-1204.239V928.5m12-1204.239V928.5m12-1204.239V928.5m12-1204.239V928.5m12-1204.239V928.5m12-1204.239V928.5m12-1204.239V928.5m12-1204.239V928.5m12-1204.239V928.5m12-1204.239V928.5m12-1204.239V928.5m12-1204.239V928.5m12-1204.239V928.5m12-1204.239V928.5m12-1204.239V928.5m12-1204.239V928.5m12-1204.239V928.5m12-1204.239V928.5m12-1204.239V928.5m12-1204.239V928.5m12-1204.239V928.5m12-1204.239V928.5m12-1204.239V928.5m12-1204.239V928.5m12-1204.239V928.5m12-1204.239V928.5m12-1204.239V928.5m12-1204.239V928.5m12-1204.239V928.5m12-1204.239V928.5m12-1204.239V928.5m12-1204.239V928.5m12-1204.239V928.5m12-1204.239V928.5m12-1204.239V928.5m12-1204.239V928.5m12-1204.239V928.5m12-1204.239V928.5"/></g></svg>