<svg height="400" width="400" xmlns="http://www.w3.org/2000/svg" viewBox="0 0 505.087 505.087" fill="lightBlue" xml:space="preserve">
  <path d="M488.909 418.392c-34.84-27.219-3.266-93.632-3.266-93.632 63.147-161.134-46.108-242.307-64.788-252.887-38.033-21.541-128.497-42.648-174.166 15.319-12.916 16.394-8.599 36.754-2.654 50.984 15.302 36.618 56.436 69.544 91.693 73.388 10.054 1.123 17.377-1.182 22.336-6.958 15.761-18.347 7.451-66.618 2.909-83.672-1.233-4.644 1.531-9.416 6.184-10.658 1.341-.356 2.664-.3 3.938-.041 3.142.637 5.842 2.909 6.72 6.225 1.905 7.179 17.956 70.998-6.532 99.501-5.401 6.286-15.004 13.286-30.97 13.286-2.05 0-4.21-.119-6.473-.366-41.593-4.542-88.095-41.432-105.88-83.995-4.475-10.708-6.707-21.065-6.948-30.835-99.728 0-213.575 55.596-220.991 155.597a7.015 7.015 0 0 0 4.789 7.179 7.015 7.015 0 0 0 8.14-2.882c6.124-9.616 13.75-20.027 21.325-26.585 1.087 15.749 5.871 30.796 14.136 44.532 16.552 27.508 25.39 59.098 25.39 91.198l.158 59.253c.843 7.261 17.995 13.065 39.181 13.065 21.194 0 38.346-5.804 39.19-13.065l.158-38.455a36.34 36.34 0 0 1 11.61-26.616c7.4-6.873 17.316-9.628 27.413-9.628 6.263 0 19.079.009 19.828 0 9.688-.101 19.019 4.337 25.899 11.159a36.3 36.3 0 0 1 10.761 25.799l.158 37.74c.843 7.261 17.994 13.065 39.181 13.065 21.194 0 38.346-5.804 39.19-13.065l.158-33.215c0-98.599 72.254-142.598 80.839-147.814 42.606-25.886 23.68 52.557 23.68 52.557-28.307 88.188 37.017 128.472 37.017 128.472l.293-.339c.204.208.262.544.498.722 4.184 3.155 11.799.128 16.995-6.779 4.792-6.34 5.668-13.564 2.569-17.171z"/>
</svg>
