<svg width="701" height="419" viewBox="0 0 701 419" fill="none" xmlns="http://www.w3.org/2000/svg"><path d="M209.5 145.5 259.5 9l22-5.5h405l11 13.5-56 225L695 358.5 589.5 382l-126 33-43.5-5-391-55-9.5-6 130-22 17-7-14-13.5 7-26.5z" fill="#6B7280"/><path fill-rule="evenodd" clip-rule="evenodd" d="M639.275 237.808a3.127 3.127 0 0 1 4.169 1.464l56.25 117.113a3.132 3.132 0 0 1-2.15 4.406l-64.8 14.137a3.1 3.1 0 0 1-1.019.052l-447.703-50.893a3.125 3.125 0 1 1 .706-6.21l447.184 50.834 60.432-13.184-54.538-113.549a3.13 3.13 0 0 1 1.469-4.17" fill="#374151"/><path fill-rule="evenodd" clip-rule="evenodd" d="M274.162 6.25a15.625 15.625 0 0 0-14.675 10.261L155.288 301.608c-2.089 5.717 1.738 11.878 7.789 12.538l422.435 46.047c10.744 1.17 20.725-5.674 23.507-16.114l84.8-318.18c2.643-9.919-4.832-19.649-15.094-19.649zm-20.545 8.116A21.875 21.875 0 0 1 274.162 0h404.563c14.369 0 24.837 13.622 21.137 27.508l-84.8 318.181c-3.581 13.422-16.418 22.222-30.225 20.717L162.4 320.359c-10.085-1.099-16.465-11.368-12.982-20.896z" fill="#374151"/><path fill-rule="evenodd" clip-rule="evenodd" d="M269.599 20.798a3.125 3.125 0 0 1 2.934-2.048h405.592a3.124 3.124 0 0 1 3.019 3.938l-85.857 318.749a3.124 3.124 0 0 1-3.35 2.295l-420.392-44.684a3.126 3.126 0 0 1-2.603-4.185zM274.714 25 176.19 293.256l413.754 43.98L674.05 25zm379.267 125.12a3.124 3.124 0 0 1 2.15 3.864l-12.5 43.75a3.126 3.126 0 0 1-6.012-1.718l12.5-43.75a3.126 3.126 0 0 1 3.862-2.146m-472.08 168.669q.421-.067.846-.018l445.734 51.136a3.12 3.12 0 0 1 2.763 2.893 3.13 3.13 0 0 1-2.344 3.239l-167.154 42.614a3.1 3.1 0 0 1-1.213.066L2.683 353.377a3.124 3.124 0 0 1-.047-6.18zm.557 6.239L24.111 350.122l436.691 62.322 150.092-38.264z" fill="#374151"/></svg>