<svg xmlns="http://www.w3.org/2000/svg" viewBox="0 0 400 100" width="400" height="100" style="width:100%;height:100%;transform:translate3d(0,0,0)"><defs><clipPath id="a"><path d="M0 0h400v100H0z"/></clipPath><clipPath id="b"><path fill="#fff" d="M161.606-15.377a6.5 6.5 0 0 0-3.626-1.334l-.421-.022c-39.01-2.04-90.668-2.071-123.8-1.67-90.845 1.048-179.892 4.966-191.839 5.582-3.242.154-4.018 1.92-4.497 3.173q-.012.333.01.687l.006.089c.028.023-.13.091-.185.14-.158.11-.312.236-.453.377-.284.28-.499.618-.603.929-.211.64-.03 1.056.177 1.245.216.199.48.233.747.237.265.007.563-.04.829.06.129.05.237.149.275.282.02.065.022.137.011.207.005.067.031.13.045.195q.101.387.166.773c.035.258.065.512.132.759.394 1.983 1.051 3.625 2.317 3.984 1.683.472 10.934.05 19.77-.42 8.833-.48 17.24-1.046 17.24-1.046l26.981-1.243c13.819-.6 28.296-1.144 30.904-1.196l19.253-.571A6149 6149 0 0 1 3.69-5.374c15.121-.312 32.236-.61 50.781-.786C33.389-4.249 13.874-2.384-3.025-.674c-36.364 3.651-60.628 6.581-62.48 6.834-4.318.614-14.994 1.856-25.904 3.393-10.911 1.525-22.056 3.33-27.327 4.779-5.189 1.401-5.992 5.472.279 5.424 3.687-.081 19.954-1.807 27.802-2.537l22.409-2.349a3956 3956 0 0 1 55.91-5.214c23.053-2.008 49.935-4.178 78.869-6.368L111.25.004l23.095-1.626 11.662-.809 5.855-.407 2.941-.208 1.492-.109.757-.057.271-.022a8 8 0 0 0 2.052-.471c1.43-.514 2.709-1.557 3.449-2.525a6.526 6.526 0 0 0-1.218-9.147"/><path fill="#fff" d="m156.246-14.798-.158.016.165-.018c.042-.003-.007.002-.007.002"/></clipPath></defs><g clip-path="url(#a)"><g clip-path="url(#b)" transform="translate(200 50)" style="display:block" stroke="#F08EB1" fill="none"><path stroke-width="14" d="M-174.003-3.866c79.503-5.138 96.504-9.137 348.495-6.268"/><path stroke-width="11" d="M414.125-6.903c62.769-6.91-579.897 16.112-717.589 25.914" transform="scale(.41623 1.08593)"/></g></g></svg>