<svg width="100" height="100" viewBox="0 0 100 100" fill="none" xmlns="http://www.w3.org/2000/svg"><path d="M50 10a40 40 0 1 0 0 80.001A40 40 0 0 0 50 10m-5.714 55.971L30 51.686l4.543-4.543 9.743 9.743 21.171-21.172 4.56 4.532z" fill="url(#a)"/><path d="M50 5a45 45 0 1 0 0 90 45 45 0 0 0 0-90Z" stroke="url(#b)" stroke-opacity=".1" stroke-width="10"/><path d="m30 51.598 14.286 14.286 25.731-25.726-4.56-4.531-21.171 21.171-9.743-9.743z" fill="#fff"/><defs><linearGradient id="a" x1="10" y1="50" x2="90" y2="50" gradientUnits="userSpaceOnUse"><stop stop-color="#00F5A0"/><stop offset="1" stop-color="#00D9F5"/></linearGradient><linearGradient id="b" x1="10" y1="50" x2="90" y2="50" gradientUnits="userSpaceOnUse"><stop stop-color="#00F5A0"/><stop offset="1" stop-color="#00D9F5"/></linearGradient></defs></svg>