<svg xmlns="http://www.w3.org/2000/svg" xmlns:xlink="http://www.w3.org/1999/xlink" viewBox="0 0 1080 1260" width="1080" height="1260" style="width:100%;height:100%;transform:translate3d(0,0,0);content-visibility:visible"><defs><path d="M45-45v90h-90v-90z" transform="matrix(6 0 0 6 270 270)" style="display:block" id="a"/><path d="M45-45v90h-90v-90z" transform="matrix(6 0 0 6 270 270)" style="display:block" id="b"/><path d="M45-45v90h-90v-90z" transform="matrix(6 0 0 6 270 270)" style="display:block" id="c"/><path d="M45-45v90h-90v-90z" transform="matrix(6 0 0 6 270 270)" style="display:block" id="d"/><path d="M45-45v90h-90v-90z" transform="matrix(6 0 0 6 270 270)" style="display:block" id="e"/><path d="M45-45v90h-90v-90z" transform="matrix(6 0 0 6 270 270)" style="display:block" id="f"/><path d="M45-45v90h-90v-90z" transform="matrix(6 0 0 6 811 270)" style="display:block" id="g"/><path d="M45-45v90h-90v-90z" transform="matrix(6 0 0 6 811 270)" style="display:block" id="h"/><path d="M45-45v90h-90v-90z" transform="matrix(6 0 0 6 811 270)" style="display:block" id="i"/><path d="M45-45v90h-90v-90z" transform="matrix(6 0 0 6 811 270)" style="display:block" id="j"/><path d="M45-45v90h-90v-90z" transform="matrix(6 0 0 6 620.221 270)" style="display:block" id="k"/><path d="M45-45v90h-90v-90z" transform="matrix(6 0 0 6 620.221 270)" style="display:block" id="l"/><path d="M45-45v90h-90v-90z" transform="matrix(6 0 0 6 620.221 270)" style="display:block" id="m"/><path d="M45-45v90h-90v-90z" transform="matrix(6 0 0 6 620.221 270)" style="display:block" id="n"/><path d="M45-45v90h-90v-90z" transform="matrix(6 0 0 6 620.221 270)" style="display:block" id="o"/><path d="M45-45v90h-90v-90z" transform="matrix(6 0 0 6 620.221 270)" style="display:block" id="p"/><path d="M45-45v90h-90v-90z" transform="matrix(6 0 0 6 620.221 270)" style="display:block" id="q"/><path d="M45-45v90h-90v-90z" transform="matrix(6 0 0 6 270 270)" style="display:block" id="r"/><path d="M45-45v90h-90v-90z" transform="matrix(6 0 0 6 270 270)" style="display:block" id="s"/><path d="M45-45v90h-90v-90z" transform="matrix(6 0 0 6 270 270)" style="display:block" id="t"/><path d="M45-45v90h-90v-90z" transform="matrix(6 0 0 6 270 270)" style="display:block" id="u"/><path d="M45-45v90h-90v-90z" transform="matrix(6 0 0 6 270 270)" style="display:block" id="v"/><path d="M45-45v90h-90v-90z" transform="matrix(6 0 0 6 270 270)" style="display:block" id="w"/><path d="M45-45v90h-90v-90z" transform="matrix(6 0 0 6 270 270)" style="display:block" id="x"/><path d="M45-45v90h-90v-90z" transform="matrix(6 0 0 6 270 270)" style="display:block" id="y"/><path d="M45-45v90h-90v-90z" transform="matrix(6 0 0 6 270 270)" style="display:block" id="z"/><path d="M45-45v90h-90v-90z" transform="matrix(6 0 0 6 270 270)" style="display:block" id="A"/><path d="M45-45v90h-90v-90z" transform="matrix(6 0 0 6 270 270)" style="display:block" id="B"/><path d="M45-45v90h-90v-90z" transform="matrix(6 0 0 6 270 270)" style="display:block" id="C"/><path d="M45-45v90h-90v-90z" transform="matrix(6 0 0 6 270 270)" style="display:block" id="D"/><path d="M45-45v90h-90v-90z" transform="matrix(6 0 0 6 270 270)" style="display:block" id="E"/><path d="M45-45v90h-90v-90z" transform="matrix(6 0 0 6 270 270)" style="display:block" id="F"/><path d="M45-45v90h-90v-90z" transform="matrix(6 0 0 6 811 270)" style="display:block" id="G"/><path d="M45-45v90h-90v-90z" transform="matrix(6 0 0 6 811 270)" style="display:block" id="H"/><path d="M45-45v90h-90v-90z" transform="matrix(6 0 0 6 811 270)" style="display:block" id="I"/><path d="M45-45v90h-90v-90z" transform="matrix(6 0 0 6 811 270)" style="display:block" id="J"/><path d="M45-45v90h-90v-90z" transform="matrix(6 0 0 6 811 270)" style="display:block" id="K"/><path d="M45-45v90h-90v-90z" transform="matrix(6 0 0 6 811 270)" style="display:block" id="L"/><path d="M45-45v90h-90v-90z" transform="matrix(6 0 0 6 811 270)" style="display:block" id="M"/><path d="M45-45v90h-90v-90z" transform="matrix(6 0 0 6 811 270)" style="display:block" id="N"/><path d="M45-45v90h-90v-90z" transform="matrix(6 0 0 6 788.22 270)" style="display:block" id="O"/><path d="M45-45v90h-90v-90z" transform="matrix(6 0 0 6 788.22 270)" style="display:block" id="P"/><path d="M45-45v90h-90v-90z" transform="matrix(6 0 0 6 788.22 270)" style="display:block" id="Q"/><path d="M45-45v90h-90v-90z" transform="matrix(6 0 0 6 788.22 270)" style="display:block" id="R"/><path d="M45-45v90h-90v-90z" transform="matrix(6 0 0 6 788.22 270)" style="display:block" id="S"/><path d="M45-45v90h-90v-90z" transform="matrix(6 0 0 6 788.22 270)" style="display:block" id="T"/><path d="M45-45v90h-90v-90z" transform="matrix(6 0 0 6 788.22 270)" style="display:block" id="U"/><path d="M45-45v90h-90v-90z" transform="matrix(6 0 0 6 788.22 270)" style="display:block" id="V"/><path d="M45-45v90h-90v-90z" transform="matrix(6 0 0 6 811 270)" style="display:block" id="W"/><path d="M45-45v90h-90v-90z" transform="matrix(6 0 0 6 811 270)" style="display:block" id="X"/><path d="M45-45v90h-90v-90z" transform="matrix(6 0 0 6 811 270)" style="display:block" id="Y"/><path d="M45-45v90h-90v-90z" transform="matrix(6 0 0 6 270.534 270)" style="display:block" id="Z"/><path d="M45-45v90h-90v-90z" transform="matrix(6 0 0 6 270.534 270)" style="display:block" id="aa"/><path d="M45-45v90h-90v-90z" transform="matrix(6 0 0 6 270.534 270)" style="display:block" id="ab"/><path d="M45-45v90h-90v-90z" transform="matrix(6 0 0 6 270.534 270)" style="display:block" id="ac"/><path d="M45-45v90h-90v-90z" transform="matrix(6 0 0 6 270.534 270)" style="display:block" id="ad"/><path d="M45-45v90h-90v-90z" transform="matrix(6 0 0 6 270.534 270)" style="display:block" id="ae"/><path d="M45-45v90h-90v-90z" transform="matrix(6 0 0 6 270.534 270)" style="display:block" id="af"/><path d="M45-45v90h-90v-90z" transform="matrix(6 0 0 6 270.534 270)" style="display:block" id="ag"/><path d="M45-45v90h-90v-90z" transform="matrix(6 0 0 6 270.534 270)" style="display:block" id="ah"/><path d="M45-45v90h-90v-90z" transform="matrix(6 0 0 6 811 270)" style="display:block" id="ai"/><path d="M45-45v90h-90v-90z" transform="matrix(6 0 0 6 811 270)" style="display:block" id="aj"/><path d="M45-45v90h-90v-90z" transform="matrix(6 0 0 6 811 270)" style="display:block" id="ak"/><path d="M45-45v90h-90v-90z" transform="matrix(6 0 0 6 811 270)" style="display:block" id="al"/><path d="M45-45v90h-90v-90z" transform="matrix(6 0 0 6 811 270)" style="display:block" id="am"/><path d="M45-45v90h-90v-90z" transform="matrix(6 0 0 6 811 270)" style="display:block" id="an"/><mask id="bN" mask-type="alpha"><use xlink:href="#a"/></mask><mask id="bM" mask-type="alpha"><use xlink:href="#b"/></mask><mask id="bL" mask-type="alpha"><use xlink:href="#c"/></mask><mask id="bK" mask-type="alpha"><use xlink:href="#d"/></mask><mask id="bJ" mask-type="alpha"><use xlink:href="#e"/></mask><mask id="bI" mask-type="alpha"><use xlink:href="#f"/></mask><mask id="bG" mask-type="alpha"><use xlink:href="#g"/></mask><mask id="bF" mask-type="alpha"><use xlink:href="#h"/></mask><mask id="bE" mask-type="alpha"><use xlink:href="#i"/></mask><mask id="bD" mask-type="alpha"><use xlink:href="#j"/></mask><mask id="bB" mask-type="alpha"><use xlink:href="#k"/></mask><mask id="bA" mask-type="alpha"><use xlink:href="#l"/></mask><mask id="bz" mask-type="alpha"><use xlink:href="#m"/></mask><mask id="by" mask-type="alpha"><use xlink:href="#n"/></mask><mask id="bx" mask-type="alpha"><use xlink:href="#o"/></mask><mask id="bw" mask-type="alpha"><use xlink:href="#p"/></mask><mask id="bv" mask-type="alpha"><use xlink:href="#q"/></mask><mask id="bt" mask-type="alpha"><use xlink:href="#r"/></mask><mask id="bs" mask-type="alpha"><use xlink:href="#s"/></mask><mask id="br" mask-type="alpha"><use xlink:href="#t"/></mask><mask id="bq" mask-type="alpha"><use xlink:href="#u"/></mask><mask id="bp" mask-type="alpha"><use xlink:href="#v"/></mask><mask id="bo" mask-type="alpha"><use xlink:href="#w"/></mask><mask id="bn" mask-type="alpha"><use xlink:href="#x"/></mask><mask id="bm" mask-type="alpha"><use xlink:href="#y"/></mask><mask id="bl" mask-type="alpha"><use xlink:href="#z"/></mask><mask id="bk" mask-type="alpha"><use xlink:href="#A"/></mask><mask id="bi" mask-type="alpha"><use xlink:href="#B"/></mask><mask id="bh" mask-type="alpha"><use xlink:href="#C"/></mask><mask id="bg" mask-type="alpha"><use xlink:href="#D"/></mask><mask id="bf" mask-type="alpha"><use xlink:href="#E"/></mask><mask id="be" mask-type="alpha"><use xlink:href="#F"/></mask><mask id="bc" mask-type="alpha"><use xlink:href="#G"/></mask><mask id="bb" mask-type="alpha"><use xlink:href="#H"/></mask><mask id="ba" mask-type="alpha"><use xlink:href="#I"/></mask><mask id="aZ" mask-type="alpha"><use xlink:href="#J"/></mask><mask id="aY" mask-type="alpha"><use xlink:href="#K"/></mask><mask id="aX" mask-type="alpha"><use xlink:href="#L"/></mask><mask id="aW" mask-type="alpha"><use xlink:href="#M"/></mask><mask id="aV" mask-type="alpha"><use xlink:href="#N"/></mask><mask id="aT" mask-type="alpha"><use xlink:href="#O"/></mask><mask id="aS" mask-type="alpha"><use xlink:href="#P"/></mask><mask id="aR" mask-type="alpha"><use xlink:href="#Q"/></mask><mask id="aQ" mask-type="alpha"><use xlink:href="#R"/></mask><mask id="aP" mask-type="alpha"><use xlink:href="#S"/></mask><mask id="aO" mask-type="alpha"><use xlink:href="#T"/></mask><mask id="aN" mask-type="alpha"><use xlink:href="#U"/></mask><mask id="aM" mask-type="alpha"><use xlink:href="#V"/></mask><mask id="aK" mask-type="alpha"><use xlink:href="#W"/></mask><mask id="aJ" mask-type="alpha"><use xlink:href="#X"/></mask><mask id="aI" mask-type="alpha"><use xlink:href="#Y"/></mask><mask id="aG" mask-type="alpha"><use xlink:href="#Z"/></mask><mask id="aF" mask-type="alpha"><use xlink:href="#aa"/></mask><mask id="aE" mask-type="alpha"><use xlink:href="#ab"/></mask><mask id="aD" mask-type="alpha"><use xlink:href="#ac"/></mask><mask id="aC" mask-type="alpha"><use xlink:href="#ad"/></mask><mask id="aB" mask-type="alpha"><use xlink:href="#ae"/></mask><mask id="aA" mask-type="alpha"><use xlink:href="#af"/></mask><mask id="az" mask-type="alpha"><use xlink:href="#ag"/></mask><mask id="ay" mask-type="alpha"><use xlink:href="#ah"/></mask><mask id="aw" mask-type="alpha"><use xlink:href="#ai"/></mask><mask id="av" mask-type="alpha"><use xlink:href="#aj"/></mask><mask id="au" mask-type="alpha"><use xlink:href="#ak"/></mask><mask id="at" mask-type="alpha"><use xlink:href="#al"/></mask><mask id="as" mask-type="alpha"><use xlink:href="#am"/></mask><mask id="ar" mask-type="alpha"><use xlink:href="#an"/></mask><clipPath id="ao"><path d="M0 0h1080v1260H0z"/></clipPath><clipPath id="ap"><path d="M0 0h1440v1440H0z"/></clipPath><clipPath id="bH"><path d="M0 0h540v540H0z"/></clipPath><clipPath id="bC"><path d="M0 0h540v540H0z"/></clipPath><clipPath id="bu"><path d="M0 0h540v540H0z"/></clipPath><clipPath id="bj"><path d="M0 0h540v540H0z"/></clipPath><clipPath id="bd"><path d="M0 0h540v540H0z"/></clipPath><clipPath id="aU"><path d="M0 0h540v540H0z"/></clipPath><clipPath id="aL"><path d="M0 0h540v540H0z"/></clipPath><clipPath id="aH"><path d="M0 0h540v540H0z"/></clipPath><clipPath id="ax"><path d="M0 0h540v540H0z"/></clipPath><clipPath id="aq"><path d="M0 0h540v540H0z"/></clipPath></defs><g clip-path="url(#ao)"><g clip-path="url(#ap)" transform="translate(0 -179.5)" style="display:block"><g clip-path="url(#aq)" style="display:block" transform="translate(539.55 179.05)scale(.335)"><path fill="#8905FF" d="M45-45v90h-90v-90z" transform="matrix(6 0 0 6 811 270)" style="display:block"/><g mask="url(#ar)" style="display:block"><path fill="#E6DAFF" d="M270 300H0v60h270z"/></g><g mask="url(#as)" style="display:block"><path fill="#E6DAFF" d="M540 240H270v60h270z"/></g><g mask="url(#at)" style="display:block"><path fill="#E6DAFF" d="M939.6 330.5H-129.6v30H939.6z"/></g><g mask="url(#au)" style="display:block"><path fill="#E6DAFF" d="M270 120H0v60h270z"/></g><g mask="url(#av)" style="display:block"><path fill="#E6DAFF" d="M270 210H0v30h270z"/></g><g mask="url(#aw)" style="display:block"><path fill="#E6DAFF" d="M540 420H0v60h540z"/></g></g><g clip-path="url(#ax)" style="display:block" transform="translate(899.55 359.55)scale(.335)"><path fill="#8905FF" d="M45-45v90h-90v-90z" transform="matrix(6 0 0 6 270.534 270)" style="display:block"/><g mask="url(#ay)" style="display:block"><path fill="#E6DAFF" d="M270 509.7H0v30.6h270z"/></g><g mask="url(#az)" style="display:block"><path fill="#E6DAFF" d="M270 329.7H0v30.6h270z"/></g><g mask="url(#aA)" style="display:block"><path fill="#E6DAFF" d="M270 449.7H0v30.6h270z"/></g><g mask="url(#aB)" style="display:block"><path fill="#E6DAFF" d="M540 419.7H270v30.6h270z"/></g><g mask="url(#aC)" style="display:block"><path fill="#E6DAFF" d="M540 239.7H270v30.6h270z"/></g><g mask="url(#aD)" style="display:block"><path fill="#E6DAFF" d="M540 149.7H270v30.6h270z"/></g><g mask="url(#aE)" style="display:block"><path fill="#F139FF" d="M270 269.7H0v30.6h270z"/></g><g mask="url(#aF)" style="display:block"><path fill="#F139FF" d="M270 389.7H0v30.6h270z"/></g><g mask="url(#aG)" style="display:block"><path fill="#F139FF" d="M540 359.7H270v30.6h270z"/></g></g><g clip-path="url(#aH)" style="display:block" transform="translate(359.55 539.55)scale(.335)"><path fill="#8905FF" d="M45-45v90h-90v-90z" transform="matrix(6 0 0 6 811 270)" style="display:block"/><g mask="url(#aI)" style="display:block"><path fill="#E6DAFF" d="M0 360.002h540v-60H0z"/></g><g mask="url(#aJ)" style="display:block"><path fill="#E6DAFF" d="M0 240h540v-60H0z"/></g><g mask="url(#aK)" style="display:block"><path fill="#E6DAFF" d="M0 676.1h270V356.9H0z"/></g></g><g clip-path="url(#aL)" style="display:block" transform="translate(539.425 539.55)scale(.335)"><path fill="#8905FF" d="M45-45v90h-90v-90z" transform="matrix(6 0 0 6 788.22 270)" style="display:block"/><g mask="url(#aM)" style="display:block"><path fill="#E6DAFF" d="M540 330H270v30h270z"/></g><g mask="url(#aN)" style="display:block"><path fill="#E6DAFF" d="M540 270H270v30h270z"/></g><g mask="url(#aO)" style="display:block"><path fill="#E6DAFF" d="M919.35 150h-1028.7v30h1028.7z"/></g><g mask="url(#aP)" style="display:block"><path fill="#E6DAFF" d="M540 60H270v30h270z"/></g><g mask="url(#aQ)" style="display:block"><path fill="#E6DAFF" d="M270 30H0v30h270z"/></g><g mask="url(#aR)" style="display:block"><path fill="#E6DAFF" d="M540 390H270v30h270z"/></g><g mask="url(#aS)" style="display:block"><path fill="#E6DAFF" d="M270 420.012H0v177.6h270z"/></g><g mask="url(#aT)" style="display:block"><path fill="#58FFA3" d="M556.2 149.775h-842.4v30.45h842.4z"/></g></g><g clip-path="url(#aU)" style="display:block" transform="translate(359.425 719.3)scale(.335)"><path fill="#8905FF" d="M45-45v90h-90v-90z" transform="matrix(6 0 0 6 811 270)" style="display:block"/><g mask="url(#aV)" style="display:block"><path fill="#E6DAFF" d="M270 510H0v30h270z"/></g><g mask="url(#aW)" style="display:block"><path fill="#E6DAFF" d="M270 330H0v30h270z"/></g><g mask="url(#aX)" style="display:block"><path fill="#E6DAFF" d="M270 450H0v30h270z"/></g><g mask="url(#aY)" style="display:block"><path fill="#E6DAFF" d="M540 240H270v30h270z"/></g><g mask="url(#aZ)" style="display:block"><path fill="#E6DAFF" d="M540 180H270v30h270z"/></g><g mask="url(#ba)" style="display:block"><path fill="#E6DAFF" d="M540 90H270v30h270z"/></g><g mask="url(#bb)" style="display:block"><path fill="#F139FF" d="M270 210H0v30h270z"/></g><g mask="url(#bc)" style="display:block"><path fill="#F139FF" d="M540 360H270v30h270z"/></g></g><g clip-path="url(#bd)" style="display:block" transform="translate(719.425 719.55)scale(.335)"><path fill="#8905FF" d="M45-45v90h-90v-90z" transform="matrix(6 0 0 6 270 270)" style="display:block"/><g mask="url(#be)" style="display:block"><path fill="#E6DAFF" d="M0 120h270V60H0z"/></g><g mask="url(#bf)" style="display:block"><path fill="#E6DAFF" d="M270 300H0v60h270z"/></g><g mask="url(#bg)" style="display:block"><path fill="#E6DAFF" d="M270 180H0v60h270z"/></g><g mask="url(#bh)" style="display:block"><path fill="#E6DAFF" d="M540 480H270v60h270z"/></g><g mask="url(#bi)" style="display:block"><path fill="#E6DAFF" d="M540 239.7H270v60.6h270z"/></g></g><g clip-path="url(#bj)" style="display:block" transform="translate(899.425 899.55)scale(.335)"><path fill="#8905FF" d="M45-45v90h-90v-90z" transform="matrix(6 0 0 6 270 270)" style="display:block"/><g mask="url(#bk)" style="display:block"><path fill="#E6DAFF" d="M540.675 359.325h-91.35v91.35h91.35z"/></g><g mask="url(#bl)" style="display:block"><path fill="#E6DAFF" d="M450.675 89.325h-91.35v91.35h91.35z"/></g><g mask="url(#bm)" style="display:block"><path fill="#E6DAFF" d="M450.675 449.325h-91.35v91.35h91.35z"/></g><g mask="url(#bn)" style="display:block"><path fill="#E6DAFF" d="M450.675 269.325h-91.35v91.35h91.35z"/></g><g mask="url(#bo)" style="display:block"><path fill="#E6DAFF" d="M360.675-.675h-91.35v91.35h91.35z"/></g><g mask="url(#bp)" style="display:block"><path fill="#E6DAFF" d="M360.675 179.325h-91.35v91.35h91.35z"/></g><g mask="url(#bq)" style="display:block"><path fill="#E6DAFF" d="M270.675 449.325h-91.35v91.35h91.35z"/></g><g mask="url(#br)" style="display:block"><path fill="#E6DAFF" d="M270.675 269.325h-91.35v91.35h91.35z"/></g><g mask="url(#bs)" style="display:block"><path fill="#E6DAFF" d="M180.675 179.325h-91.35v91.35h91.35z"/></g><g mask="url(#bt)" style="display:block"><path fill="#E6DAFF" d="M90.675 269.325H-.675v91.35h91.35z"/></g></g><g clip-path="url(#bu)" style="display:block" transform="translate(539.425 899.55)scale(.335)"><path fill="#8905FF" d="M45-45v90h-90v-90z" transform="matrix(6 0 0 6 620.221 270)" style="display:block"/><g mask="url(#bv)" style="display:block"><path fill="#E6DAFF" d="M270 240h270v-30H270z"/></g><g mask="url(#bw)" style="display:block"><path fill="#E6DAFF" d="M270 360h270v-30H270z"/></g><g mask="url(#bx)" style="display:block"><path fill="#E6DAFF" d="M270 300h270v-30H270z"/></g><g mask="url(#by)" style="display:block"><path fill="#E6DAFF" d="M0 540h270v-60H0z"/></g><g mask="url(#bz)" style="display:block"><path fill="#E6DAFF" d="M0 420h270v-60H0z"/></g><g mask="url(#bA)" style="display:block"><path fill="#58FFA3" d="M0 210h270v-30H0z"/></g><g mask="url(#bB)" style="display:block"><path fill="#58FFA3" d="M270 480h270v-60H270z"/></g></g><g clip-path="url(#bC)" style="display:block" transform="translate(359.425 899.425)scale(.335)"><path fill="#8905FF" d="M45-45v90h-90v-90z" transform="matrix(6 0 0 6 811 270)" style="display:block"/><g mask="url(#bD)" style="display:block" fill="#E6DAFF"><path d="M330.75 510h-391.5v30h391.5zm-39.15-90.001H-21.6v60h313.2z"/><path d="M540 420.062H270v192h270zM270 301.999H0v60h270z"/><path d="M270 360.999H0v60h270z"/></g><g mask="url(#bE)" style="display:block"><path fill="#E6DAFF" d="M0 120h270V60H0z"/></g><g mask="url(#bF)" style="display:block"><path fill="#58FFA3" d="M270 390H0v30h270z"/></g><g mask="url(#bG)" style="display:block"><path fill="#58FFA3" d="M270 450H0v30h270z"/></g></g><g clip-path="url(#bH)" style="display:block" transform="translate(719.425 1259.56)scale(.335)"><path fill="#8905FF" d="M45-45v90h-90v-90z" transform="matrix(6 0 0 6 270 270)" style="display:block"/><g mask="url(#bI)" style="display:block"><path fill="#E6DAFF" d="M180.05 360h-269.1v90h269.1z"/></g><g mask="url(#bJ)" style="display:block"><path fill="#E6DAFF" d="M450.9 269.1h-91.8v91.8h91.8z"/></g><g mask="url(#bK)" style="display:block"><path fill="#E6DAFF" d="M540 360h-90v90h90z"/></g><g mask="url(#bL)" style="display:block"><path fill="#E6DAFF" d="M360 360h-90v90h90z"/></g><g mask="url(#bM)" style="display:block"><path fill="#E6DAFF" d="M270 450h-90v90h90z"/></g><g mask="url(#bN)" style="display:block"><path fill="#F139FF" d="M270 90h-90v90h90z"/></g></g></g></g></svg>